<svg xmlns="http://www.w3.org/2000/svg" width="80" height="24.613" viewBox="0 0 166.459 24.613"><path d="M0,0H22.786c7.062,0,8.95,2.71,8.95,5.5V5.85c0,3-2.566,4.393-4.167,4.762,2.155.493,5.563,1.95,5.563,6.22v.39c0,3.818-2.34,7-10.223,7H0ZM9.237,5.5V8.93H19.973c1.93,0,2.484-.78,2.484-1.683V7.185c0-.985-.554-1.663-2.484-1.663H9.237Zm0,8.847v4.167H20.569c2.4,0,2.874-1.15,2.874-2.073v-.1c0-1.006-.493-1.991-2.874-1.991Z" fill="#edff85"/><path d="M168.5,0h9.279V10.839c0,2.956,1.293,6.507,7.431,6.507,6.015,0,7.39-3.551,7.39-6.507V0h9.237V11.557c0,4.68-2.217,13.056-15.95,13.056h-1.293c-14.1,0-16.073-8.375-16.073-13.056L168.5,0Z" transform="translate(-133.911)" fill="#edff85"/><path d="M346.6,24.223V0h9.237V9.566L367.744,0h11.5L365.157,11l14.554,13.22h-12.05L355.837,13.384V24.223Z" transform="translate(-275.451)" fill="#edff85"/><path d="M517.149,6.61H506.7V0h30.135V6.61H526.386V24.223h-9.237Z" transform="translate(-402.686)" fill="#edff85"/><path d="M655.264,20.3H641.429l-1.847,3.9H630.2L642.188,0h12.44l12.666,24.223h-10.12ZM648.244,5.932l-3.962,8.334h8.047Z" transform="translate(-500.835)" fill="#edff85"/></svg>